<?xml version="1.0" encoding="UTF-8"?><svg id="Layer_1" xmlns="http://www.w3.org/2000/svg" viewBox="0 0 4988.72 2423.01"><defs><style>.cls-1,.cls-2,.cls-3,.cls-4,.cls-5,.cls-6,.cls-7,.cls-8{fill:none;stroke:#231f20;stroke-miterlimit:10;}.cls-2{stroke-dasharray:0 0 12.09 12.09;}.cls-3{stroke-dasharray:0 0 11.95 11.95;}.cls-4{stroke-dasharray:0 0 12.44 12.44;}.cls-5{stroke-width:2px;}.cls-6{stroke-dasharray:0 12;}.cls-7{stroke-dasharray:0 0 12 12;}.cls-8{stroke-dasharray:0 0 12.15 12.15;}</style></defs><path className="cls-1" d="m4864.58,1688.43l-450.5-.29-204.9-.37-28.28-113.43-302.64-.39c-11.19-.15-22.54-.23-33.74-.23-18.68,0-37.62.22-56.32.64-27.77.63-58.4,1.88-88.58,3.61-33.59,1.93-56.57,3.87-105.35,8.07-41.21,3.55-87.92,7.58-148.46,14.54-21.53,2.48-35.8,4.28-49.6,6.03-4.41.56-8.77,1.11-13.32,1.68-41.12,5.14-166.24,20.77-312.69,27.99-45.23,2.23-82.15,3.15-121.22,4.13-47.99,1.2-96.43,1.9-144.01,2.07l-237.56-.67.27-14.4c.15-7.76.19-15.65.14-23.46v-.91c-.17-23.31-.31-43.44-3.16-68.38-2.76-24.18-6.73-41.79-8.85-50.14-1.92-7.57-4.1-16.15-8.19-26.99-3.65-9.68-9.16-24.3-20.77-40.63-7.29-10.26-15.94-19.68-25.73-28l-8.07-6.86,4.3-9.68c11.71-26.4,23.29-53.29,34.4-79.95,8.61-20.66,17.16-41.69,25.41-62.5,7.9-20.9,15.9-42.34,23.77-63.71,4.73-12.84,8.15-22.12,12.45-34.03,12.62-34.98,21.73-62.01,29.77-85.85,10.92-32.37,19.26-58,23.26-70.4,10.01-31,19.89-62.61,29.37-93.95l3.73-12.34,12.64,2.56c60.27,12.19,116.93,23.02,168.41,32.18,10.91,1.94,21.87,3.87,36.11,6.1,41.12,6.44,82.49,11.19,122.95,14.11.47.04,41.85,3.17,79.48,3.17s83.51-3.78,83.97-3.82l2.8-.23,2.68.85c.44.14,43.81,13.95,50.43,16.04,54.03,17.05,119.59,29.56,172.26,39.62,17.95,3.42,51.35,9.8,96.01,16.85,57.77,9.12,116.55,16.55,174.72,22.09l.16.02c40.84,4.36,82.34,7.13,123.36,8.24,14,.38,28.19.57,42.2.57,9.58,0,19.29-.09,28.87-.27l88.18-3.53,153.27-6.18,186.23-8.68,206.93-11.64,142.75-5.45,288.23-12.37,10.56,174.84c3.25,49.45,6.42,99.63,9.42,149.08,2.9,47.8,5.73,96.25,8.4,143.99l.02.4-.04,240.71-105.92-.43Z"/><path className="cls-6" d="m2689.33,886.09c-10.98,36.3-21,68.03-29.45,94.2-2.11,6.54-11.05,34.19-23.32,70.58-8.52,25.26-17.46,51.72-29.87,86.14-4.31,11.95-7.81,21.44-12.48,34.12-9.7,26.34-17.92,48.23-23.85,63.92-8.21,20.72-16.72,41.67-25.55,62.83-11.41,27.37-22.93,54.12-34.53,80.25,13.24,11.26,22.28,22.39,28.1,30.59,12.41,17.47,18.48,33.24,22.47,43.84,4.28,11.35,6.54,20.13,8.67,28.5,1.18,4.65,6,24,9.2,52.02,2.97,26.02,3.08,46.81,3.25,70.79.07,9.83-.03,18.04-.14,23.83,74.36.21,148.71.42,223.07.63,36.16-.13,85.32-.6,143.67-2.06,39.27-.98,75.84-1.9,120.92-4.12,143.01-7.05,263.82-21.93,311.63-27.9,18.86-2.36,34.6-4.46,63.06-7.73,59.54-6.85,105.06-10.8,148.86-14.58,47.03-4.05,71.25-6.12,105.75-8.1,43.61-2.5,76.58-3.35,89.07-3.64,34.43-.79,64.94-.77,90.58-.41,104.51.13,209.02.27,313.52.4,9.43,37.81,18.86,75.63,28.28,113.44,64.61.11,129.22.23,193.83.35,150.18.1,300.37.2,450.55.29,30.56.12,61.13.25,91.69.37.01-75.36.02-150.72.04-226.09-2.68-47.99-5.48-95.96-8.39-143.93-3.02-49.7-6.16-99.39-9.42-149.08l-9.72-160.93c-91.46,3.93-182.92,7.85-274.38,11.78-47.58,1.82-95.17,3.63-142.75,5.45l-206.72,11.63-186.41,8.69-153.28,6.18-88.34,3.53c-23.14.43-47.12.37-71.86-.3-43.96-1.19-85.54-4.16-124.48-8.31-52.08-4.96-111.03-12.01-175.58-22.2-44.01-6.94-76.59-13.13-96.46-16.92-57.2-10.92-120.15-23.06-173.87-40.02-6.71-2.12-50.47-16.05-50.47-16.05,0,0-46.49,3.86-85.14,3.86s-80.5-3.2-80.5-3.2c-29.28-2.12-72.12-6.1-124.12-14.25-13.75-2.15-24.43-4.02-36.4-6.15-37.48-6.67-93.55-17.04-168.74-32.25Z"/><path className="cls-1" d="m4539.03,1427.22c-7.94,0-388.42-.48-412.59-.51-1.24.17-2.96.34-4.98.34-13.93,0-30.55-8.61-31.54-32.86-.96-23.45-.58-146.33-.56-151.54l.04-14.12,491.86-.16-.16,159.71c.14,6.39-.6,26.63-14.73,33.62-10.31,5.1-18.48,5.52-27.34,5.52Z"/><path className="cls-6" d="m4103.53,1242.69l463.55-.15-.15,145.69s.44,17.15-6.85,20.76c-7.29,3.61-12.81,4.05-21.06,4.05s-413.74-.52-413.74-.52c0,0-20.25,4.49-21.2-18.92-.96-23.41-.55-150.92-.55-150.92Z"/><rect className="cls-1" x="2564.33" y="1250.99" width="22.56" height="2.2" transform="translate(4477.04 3393.62) rotate(-157.53)"/><rect className="cls-1" x="2672.2" y="942.36" width="22.56" height="2.2" transform="translate(4953.91 2657.05) rotate(-162.33)"/><rect className="cls-1" x="2954.83" y="944.39" width="22.56" height="2.2" transform="translate(1705.76 3792.11) rotate(-83.8)"/><rect className="cls-1" x="3806.56" y="1052.04" width="22.56" height="2.2" transform="translate(2733.42 4862.22) rotate(-89.53)"/><rect className="cls-1" x="4933.81" y="1560.18" width="22.56" height="2.2" transform="translate(9890.18 3122.56) rotate(180)"/><rect className="cls-1" x="3815.36" y="1547.08" width="22.56" height="2.2" transform="translate(2278.45 5374.82) rotate(-90)"/><polyline className="cls-5" points="4000.01 1270.3 4044.4 1292.98 2725.21 1292.98 2750.39 1310.87"/><path className="cls-1" d="m2220.9,1102.81l3.52-2.96c15.56-13.08,34.92-29.37,46.42-52.95,11.4-23.37,12.15-29.88,13.78-44.15l.34-2.96c.44-3.76,1.4-16.12,2.87-56.71.14-3.9.27-8.45.41-13.57.24-8.65.55-19.4,1.04-31.37.33-31.75.49-63.94.49-95.7,0-6.7,0-13.41-.02-20.13-.12-57.89-.8-116.61-2.01-174.53l-2.63-42.46c-4.75-62.36-61.09-100.72-61.66-101.1l-2.76-1.85-1.68-2.9-20.54-35.77,107.74-366.06,133.89,33.65.64,41.8c.92,24.86,2.79,73.74,3.39,81.81.75,10.22,6.02,80.74,6.28,84.32l11.36,119.11,5.1,52.88,6.99,107.13,2.77,86.31c.11,8.31.2,16.64.29,24.98.24,24.3.36,48.93.36,73.21,0,6.6,0,13.18-.03,19.76.03,7.1.04,14.31.04,21.54,0,28.2-.23,56.79-.69,84.98-.25,15.48-.58,31.2-.97,46.73v.21s-.02.21-.02.21c0,.18-1.01,18.4-2.97,65.62-1.98,47.7-9.68,136.46-9.76,137.35v.14c-.11.98-9.58,98.38-15.79,169.81-6.17,70.95-6.82,152-6.83,152.81l-.08,10.94-134.12,34.11-107.62-365.95,22.44-38.31Z"/><path className="cls-6" d="m2426.11,102.39l-110.14-27.68-102.18,347.19,17.52,30.52s62.65,41.48,67.95,111.94l2.65,42.85c1.2,57.51,1.89,115.88,2.02,175.08.08,39.11-.08,77.86-.47,116.23-.79,18.93-1.08,34.39-1.46,45.08-.86,23.6-1.96,49.33-2.95,57.84-1.99,17.01-2.21,24.52-15.46,51.68-13.25,27.17-34.9,44.83-51.68,58.97l-18.11,30.92,102.04,346.97,110.28-28.05s.59-81.61,6.88-153.94c6.29-72.33,15.79-169.95,15.79-169.95,0,0,7.73-88.79,9.72-136.71,1.99-47.93,2.98-65.82,2.98-65.82.39-15.44.71-30.97.97-46.6.58-35.92.79-71.37.64-106.33.08-30.72-.03-61.65-.33-92.8-.08-8.33-.18-16.64-.29-24.94-.92-28.6-1.84-57.2-2.76-85.8l-6.96-106.67-5.08-52.67-11.37-119.26s-5.52-73.99-6.29-84.48c-.77-10.49-3.42-82.49-3.42-82.49l-.48-31.07Z"/><rect className="cls-1" x="2439.92" y="696.43" width="22.56" height="2.2" transform="translate(4902.4 1395.06) rotate(180)"/><rect className="cls-1" x="2439.92" y="866.33" width="22.56" height="2.2" transform="translate(4902.4 1734.86) rotate(180)"/><rect className="cls-1" x="2304.29" y="837.45" width="22.56" height="2.2" transform="translate(4631.14 1677.1) rotate(180)"/><rect className="cls-1" x="2303.59" y="725.51" width="22.56" height="2.2" transform="translate(4629.74 1453.23) rotate(180)"/><rect className="cls-1" x="2286.99" y="1047.4" width="22.56" height="2.2" transform="translate(3929.48 2977.38) rotate(-154.74)"/><rect className="cls-1" x="2413.36" y="1273.96" width="22.56" height="2.2" transform="translate(4764.71 2699.41) rotate(-176.41)"/><rect className="cls-1" x="2431.18" y="487.09" width="22.56" height="2.2" transform="translate(4913.84 798.47) rotate(175.85)"/><rect className="cls-1" x="2432.59" y="1062.54" width="22.56" height="2.2" transform="translate(4816.36 2278.19) rotate(-176.41)"/><rect className="cls-1" x="2412.92" y="289.13" width="22.56" height="2.2" transform="translate(4863.05 404.38) rotate(175.85)"/><rect className="cls-1" x="2287.27" y="515.36" width="22.56" height="2.2" transform="translate(4607.18 47.05) rotate(155.84)"/><polyline className="cls-1" points="2326.85 768.26 2310.55 782.36 2454.33 782.36 2433.13 799.4"/><path className="cls-1" d="m2868.06,1954.07c70.86-3.41,142.09-6.68,211.66-9.73l6.01-.26c168.82-7.38,311.38-13.73,401.42-17.89,18.73-.86,68.48-3.16,133.98-7.51,27.4-1.82,55.02-3.83,82.11-5.98,55.69-4.22,112.29-9.06,168.28-14.38,55.25-5.25,98.62-9.89,133.76-13.74,90.2-9.87,186.87-21.23,287.32-33.77,116.72-15.32,226.03-31.01,324.82-46.64,63.72-10.08,104.75-17.25,130.07-21.76,51.13-9.12,102.69-18.99,153.24-29.33l11.74-2.4,4.32,11.17c8.52,22.03,18.16,43.93,28.64,65.1,9.87,19.93,20.74,39.69,32.29,58.71l10.2,16.81-142.52,32.47-179.68,305.78-34.95,122.49-157.13,1.3c-39.21.14-78.88.43-117.96.87-34.96.39-70.43.91-105.44,1.53h-.22s-196.01-2.62-196.01-2.62c-66.78-2.21-134.34-6.68-200.8-13.29-40.77-4.05-82.01-9-122.61-14.71l-196.25,3.88-163.69,3.6c-26.2.47-52.72.71-78.9.72-22.14,0-44.61-.17-66.77-.51-20.01-.34-40.27-.82-60.26-1.43-30.73-.94-61.87-2.23-92.56-3.82-26.64-1.53-53.56-3.46-80.08-5.76-23.81-2.06-47.93-4.46-71.7-7.14-9.92-1.12-20.02-2.38-30.03-3.72-19.8-2.66-49.73-6.68-87.23-14.57-13.85-2.92-27.9-6.2-41.77-9.75-18.06-4.53-36.29-9.73-54.1-15.42-16.39-5.24-32.84-11.03-48.89-17.22l-.14-.06c-18.35-7.3-35.09-15.8-49.78-25.26-9.68-6.24-18.17-12.69-25.24-19.19-4.47-4.11-8.77-8.5-12.76-13.05l-.17-.2-.16-.2c-3.66-4.49-7.06-9.28-10.11-14.23-2.92-4.74-8.53-14.74-13.25-28.48-3.7-10.77-5.29-19.33-6.24-24.45-1.83-9.89-2.9-20.01-3.19-30.09-.51-11.17-.8-22.58-.84-33.92-.05-13.16.22-22.61.51-32.6l.15-5.15c.5-18.04.77-36.82.8-55.79l.03-13.52,330.09-14.9Z"/><path className="cls-6" d="m4620.07,2349.13c10.84-38.01,21.69-76.02,32.53-114.03,61.23-104.2,122.46-208.41,183.69-312.61,43.11-9.82,86.22-19.65,129.32-29.47-10.93-18-22.05-37.93-32.87-59.78-11.53-23.28-21.14-45.53-29.16-66.28-39.35,8.05-91.69,18.36-153.59,29.4-30.16,5.38-70.6,12.36-130.34,21.81-118.1,18.68-233.83,34.7-325.28,46.7-124.69,15.56-221.05,26.52-287.54,33.79-35.92,3.93-79.57,8.59-133.96,13.76-68.24,6.49-125.86,11.17-168.5,14.4-18.93,1.5-47.51,3.68-82.29,5.99-64.3,4.27-113.04,6.55-134.26,7.53-147.29,6.8-379.09,16.91-407.47,18.15-49.44,2.16-122.37,5.43-211.64,9.73-105.53,4.76-211.05,9.52-316.58,14.29-.04,23.78-.44,42.88-.81,56.15-.32,11.76-.71,22.12-.65,37.3.06,14.16.48,25.77.84,33.46.23,8.45,1.08,17.88,2.96,28.03.98,5.31,2.41,12.84,5.7,22.42,4.77,13.88,10.45,23.28,11.92,25.65,3.31,5.38,6.53,9.64,9.04,12.72,2.75,3.13,6.66,7.34,11.7,11.97,2.86,2.63,10.48,9.43,23.33,17.71,17.65,11.37,35.44,19.27,47.34,24,15.07,5.81,31.12,11.51,48.11,16.94,18.54,5.93,36.36,10.94,53.31,15.19,16.78,4.3,30.9,7.45,41.17,9.61,36.25,7.63,65.39,11.6,86.19,14.39,12.41,1.67,22.7,2.88,29.74,3.68,23.22,2.62,47.01,5,71.33,7.1,27.15,2.35,53.69,4.24,79.6,5.72,30.23,1.57,60.99,2.85,92.26,3.81,20.22.62,40.24,1.09,60.04,1.42,21.9.33,44.09.51,66.55.51,26.59,0,52.79-.25,78.59-.71,54.57-1.2,109.15-2.4,163.72-3.6,65.79-1.3,131.59-2.6,197.38-3.9,39.68,5.59,80.75,10.58,123.16,14.8,69.72,6.93,136.47,11.13,199.87,13.22,65.17.87,130.34,1.74,195.51,2.62,35.17-.63,70.35-1.14,105.53-1.53,39.34-.44,78.67-.73,118-.87,48.84-.41,97.69-.81,146.53-1.22Z"/><rect className="cls-1" x="4630.42" y="2230.62" width="22.56" height="2.2" transform="translate(809.88 -1209.66) rotate(16.25)"/><rect className="cls-1" x="3720.2" y="2309.68" width="22.56" height="2.2" transform="translate(6028.29 -1429.32) rotate(89.79)"/><polyline className="cls-1" points="4623.41 2184.39 4638.57 2202.21 2684.46 2213.85 2706.52 2228.05"/><path className="cls-1" d="m62.19,1219.1l97.06-582.33,13.59,1.8c39.77,5.28,80.03,10.64,119.67,15.95,28.27,3.78,48.33,6.48,64.13,8.6,25.29,3.4,39.22,5.27,58.41,7.79,53.85,7.06,109.34,13.94,164.93,20.47,49.72,5.36,98.7,10.38,145.59,14.92,25.08,2.43,44.18,4.2,67.61,6.1,29.01,2.35,58.3,4.37,87.05,6h.2c14.1,1.01,28.55,1.8,42.95,2.35,4.85.19,13.4.48,31.49.87,26.17.57,45.92.77,48.08.79,27.47.27,42.95.5,56.6.7,15.25.23,28.41.42,53.8.61,53.37.4,106.97.36,154.98-.11,22.33-.22,40.93-.5,47.89-.61,23.41-.38,47.14-.87,70.52-1.46l151.07-3.61,3.67,9.1c6.33,15.68,15.08,29.95,26.01,42.41,5.48,6.25,11.56,12.08,18.07,17.33,3.37,2.41,6.82,4.78,10.27,7.05,10.64,7.01,21.79,13.48,33.15,19.21,13.18,6.66,26.95,12.49,40.91,17.33l.29.1,206.08,76.49c17.31,6.21,34.44,13.52,50.92,21.71,16.68,8.29,34.4,18.54,51.24,29.65,3.67,2.42,7.34,4.91,10.93,7.41,26.44,18.41,51.41,39.54,74.23,62.8l.42.43.38.46c11.13,13.46,21.13,27.99,29.72,43.21,8.46,14.98,15.65,30.79,21.38,47.01l.06.17c4.45,13.12,7.69,26.73,9.64,40.45,1.92,13.52,2.59,27.3,2.01,40.94-.48,12.1-2.1,24.24-4.82,36.05-5.82,25.3-15.27,43.08-24.4,60.28-8.22,15.46-17.66,30.56-28.08,44.89-8.67,12.18-18.09,24.08-27.99,35.35-13.96,15.9-25.42,26.66-31.58,32.45-33.29,31.28-74.6,60.64-96.26,75.35l-3.49,2.37-4.21.08c-40.45.75-81.46,1-121.91.74-54.86-.36-110.47-1.67-165.28-3.9h-.12c-76.11-3.75-153.2-8.9-229.13-15.33-36.89-3.12-85.08-7.82-103.22-9.59l-5.69-.55c-32.76-3.17-56.43-5.45-83.7-8.36-44.68-4.77-90.53-10.3-136.29-16.46l-.15-.02c-60.81-8.82-122.33-18.58-182.86-29.01-89.96-15.5-180.85-33.03-270.14-52.09l-188.78-41.28-21.31,96.8-359.77-78.9,24.16-110.95Z"/><path className="cls-1" d="m176.92,653.41c-2.05-.27-4.03-.53-5.95-.79-.33,1.97-.66,3.95-.99,5.92"/><path className="cls-2" d="m168,670.46c-30.63,183.77-61.26,367.54-91.89,551.31-6.22,28.57-12.44,57.13-18.66,85.7"/><path className="cls-1" d="m56.17,1313.37c-.43,1.95-.85,3.91-1.28,5.86,1.95.43,3.91.86,5.86,1.29"/><path className="cls-8" d="m72.62,1323.12c100.87,22.12,201.73,44.24,302.6,66.36"/><path className="cls-1" d="m381.15,1390.79c1.95.43,3.91.86,5.86,1.29.43-1.95.86-3.91,1.29-5.86"/><path className="cls-4" d="m390.98,1374.06c4.91-22.28,9.81-44.56,14.72-66.84"/><path className="cls-1" d="m407.03,1301.14c.43-1.95.86-3.91,1.29-5.86,1.95.43,3.91.85,5.86,1.28"/><path className="cls-7" d="m425.9,1299.13c61.65,13.48,123.3,26.96,184.95,40.44,86.75,18.52,176.65,35.97,269.59,51.98,61.95,10.68,122.8,20.3,182.49,28.95,56.05,7.54,102.39,12.83,135.91,16.41,27.2,2.9,50.39,5.14,83.56,8.35,11.46,1.11,67.09,6.6,108.74,10.13,77.96,6.6,154.2,11.63,228.63,15.29,53.41,2.17,108.37,3.52,164.8,3.89,41.33.27,81.86,0,121.55-.74,13.97-9.49,58.9-40.49,94.52-73.96,6.4-6.01,17.39-16.4,30.63-31.47,11.58-13.19,20.59-25.09,27.13-34.28,12.16-16.72,20.94-31.74,27.07-43.26,9.32-17.54,17.82-33.8,23.11-56.8,3.14-13.64,4.14-25.31,4.47-33.48.46-10.71.18-23.73-1.89-38.35-2.11-14.86-5.54-27.62-9.03-37.89-4.62-13.08-11.11-28.4-20.35-44.76-9.4-16.65-19.35-30.32-28.3-41.14-26.49-27-51.84-46.9-72.21-61.09-28.33-19.73-51.83-31.74-60.39-36-18.78-9.33-35.7-16.15-49.47-21.09-68.72-25.51-137.44-51.01-206.15-76.52-12.94-4.49-27.36-10.35-42.65-18.06-17.85-9.01-33.04-18.62-45.61-27.62-6.37-5.12-13.3-11.47-20.15-19.28-10.79-12.3-18.33-24.71-23.62-35.51"/><path className="cls-1" d="m1530.68,737.84c-.85-1.91-1.63-3.76-2.34-5.52-2,.05-4,.1-6,.14"/><path className="cls-3" d="m1510.4,732.75c-41.1.98-82.2,1.97-123.3,2.95-18.98.48-42.93,1.02-70.65,1.47-5.05.08-24.2.38-47.98.62-25.36.25-81.07.66-155.22.11-48.22-.36-52.36-.74-110.44-1.31-1.38-.01-21.53-.21-48.25-.79-19.17-.42-27.66-.72-31.73-.88-18.19-.7-33.13-1.63-43.41-2.36-21.62-1.23-51.6-3.13-87.39-6.03-22.62-1.83-41.44-3.56-67.83-6.12-35.91-3.47-85.19-8.4-145.82-14.94-69.11-8.11-125.5-15.29-165.18-20.5-31.39-4.11-49.74-6.65-122.58-16.4-43.7-5.85-80.63-10.76-107.78-14.37"/><rect className="cls-1" x="2090.4" y="1199" width="22.56" height="2.2" transform="translate(4172.76 2452.27) rotate(-178.57)"/><rect className="cls-1" x="1891.25" y="1461.31" width="22.56" height="2.2" transform="translate(2921.35 -710.2) rotate(77.58)"/><rect className="cls-1" x="1608.05" y="1458" width="22.56" height="2.2" transform="translate(3151.94 -90.85) rotate(92.66)"/><rect className="cls-1" x="601.27" y="1327.2" width="22.56" height="2.2" transform="translate(2039.54 1006.92) rotate(102.06)"/><rect className="cls-1" x="75.69" y="1223.77" width="22.56" height="2.2" transform="translate(-88.29 2440.26) rotate(-167.73)"/><rect className="cls-1" x="566.19" y="715.62" width="22.56" height="2.2" transform="translate(-172.19 1250.74) rotate(-86.61)"/><rect className="cls-1" x="1375.63" y="745.96" width="22.56" height="2.2" transform="translate(685.43 2157.57) rotate(-91.87)"/><rect className="cls-1" x="1649.86" y="853.22" width="22.56" height="2.2" transform="translate(295.69 2129) rotate(-70.25)"/><rect className="cls-1" x="1855.95" y="929.69" width="22.56" height="2.2" transform="translate(355.45 2368.65) rotate(-70.06)"/><polyline className="cls-1" points="1921.98 1147.5 1964.02 1175.22 120.96 1129.96 170.75 1162.78"/><path className="cls-1" d="m1499.3,525.79c-1.55-.24-165-25.12-216.45-32.49-52.45-7.51-133.41-12.23-178.35-12.3-1.22,0-2.43,0-3.61,0-46.57.2-238.95,9.14-240.89,9.23l-292.94,15.61-235.58,13.08-306.48,17.41L20.72.54l72.7,6.14c45.55,3.85,100.88,8.5,129.5,10.91l17.14,1.44c130.96,11.04,303.8,29.41,353.65,34.78,54.07,5.82,80.61,8.9,106.28,11.88,28.76,3.34,55.92,6.49,118.53,13.18,14.56,1.56,29.46,3.13,45.34,4.82,44.68,4.73,95.32,10.1,167.46,18.02,25.61,2.81,51.06,5.63,75.65,8.38,26.7,2.18,53.67,4.49,80.15,6.89,48.37,4.38,129.19,11.69,217.74,22.52,11.72,1.43,39.31,4.85,67.78,8.38,16.97,2.1,52.52,6.52,69.75,8.66l68.71-.42-5.68,18.46c-2.73,8.87-4.95,18.03-6.62,27.2-3.84,21.2-3.83,38.06-3.82,54.37,0,17,1.04,30.11,1.79,39.68.85,10.84,1.59,20.19,3.57,32.36,2,12.29,4.81,24.55,8.33,36.41,6.86,22.5,16.57,43.12,28.82,61.18,7.32,10.78,15.16,20.11,18.51,24.09,12.63,15.03,23.55,25.34,31.52,32.87,12.68,11.98,27.23,24.25,42.06,35.48,10.04,7.6,20.46,14.91,30.96,21.73l-9.95,25.89-251.29-40.05Z"/><path className="cls-6" d="m35.02,15.98c1.35,168.45,2.7,336.91,4.04,505.36,97.21-5.52,194.43-11.05,291.64-16.57l235.61-13.08,293.04-15.62s194.08-9.04,241.49-9.24c47.41-.2,131.92,4.97,184.02,12.44,52.11,7.46,216.67,32.53,216.67,32.53,83.76,13.35,167.53,26.7,251.29,40.05-8.58-5.57-19.5-13.01-31.79-22.31-21.69-16.42-37.04-30.62-43.24-36.48-8.84-8.35-19.74-18.72-32.64-34.05-3.87-4.61-11.82-14.1-19.39-25.25-9.14-13.47-21.46-34.86-30.68-65.09-2.81-9.46-6.18-22.46-8.74-38.18-2.07-12.74-2.84-22.5-3.71-33.53-.82-10.45-1.83-23.58-1.83-40.79,0-17.56.07-34.9,4.05-56.9,2.19-12.1,4.9-21.98,7.01-28.84-16.77.1-33.55.2-50.32.31-16.85-2.1-53.37-6.63-70.65-8.77-28.46-3.53-56.04-6.94-67.76-8.38-88.38-10.8-170.22-18.21-217.3-22.47-19.94-1.8-47.39-4.22-80.24-6.9-17.74-1.98-44.02-4.91-75.83-8.4-98.21-10.78-157.95-16.98-212.76-22.83-120.45-12.87-112.22-12.93-224.82-25.06-33.62-3.62-215.44-23.13-353.32-34.75-13.35-1.12-88.08-7.41-146.64-12.35-4-.34-53.21-4.5-57.21-4.83Z"/><rect className="cls-1" x="805.5" y="103.17" width="22.56" height="2.2" transform="translate(922.22 -712.36) rotate(90.08)"/><rect className="cls-1" x="1093.47" y="134.37" width="22.56" height="2.2" transform="translate(1315.28 -957.47) rotate(93.91)"/><rect className="cls-1" x="1274.73" y="466.58" width="22.56" height="2.2" transform="translate(1891.95 -759.26) rotate(96.3)"/><rect className="cls-1" x="1089.25" y="454.15" width="23.15" height="2.2" transform="translate(1535.81 -653.73) rotate(88.95)"/><rect className="cls-1" x="523.03" y="480.68" width="22.56" height="2.2" transform="translate(1005.88 -61.55) rotate(88.91)"/><polygon className="cls-1" points="1538.63 188.35 1540.11 170.53 1542.31 170.53 1540.83 188.35 1538.63 188.35"/><polyline className="cls-5" points="204.5 321.13 178.44 289.77 1553.94 309.2 1532.74 289.77"/><path className="cls-1" d="m2010.05,727.81c0-4.23.1-8.52.29-12.76l.11-209.16-.22-209.12c-.11-3.3-.17-6.65-.17-9.95,0-10.78.6-21.67,1.77-32.37.9-8.19,2.16-16.45,3.74-24.55,3.59-17.88,8.98-35.38,16.01-52.1,6.64-15.78,14.82-31.01,24.31-45.27l25.97-39.04v826.85s-26.03-39.75-26.03-39.75c-19.43-29.67-32.89-62.1-40.01-96.39-3.83-18.47-5.78-37.43-5.78-56.38Z"/><path className="cls-6" d="m2067.69,140.38v732.44c-12.68-19.37-29.45-50.35-37.99-91.51-5.31-25.57-6.02-48.2-5.19-65.93.04-69.83.07-139.66.11-209.48-.07-69.79-.15-139.58-.22-209.37-.41-12.08-.11-25.7,1.52-40.53.91-8.31,2.14-16.12,3.56-23.37,2.8-13.92,7.39-30.85,15.17-49.33,7.28-17.31,15.53-31.63,23.04-42.92Z"/><rect className="cls-1" x="2045.11" y="449.95" width="22.56" height="2.2" transform="translate(4112.78 902.1) rotate(180)"/><rect className="cls-1" x="2045.11" y="561.8" width="22.56" height="2.2" transform="translate(4112.78 1125.8) rotate(180)"/><rect className="cls-1" x="2045.11" y="782.09" width="22.56" height="2.2" transform="translate(4112.78 1566.38) rotate(180)"/><rect className="cls-1" x="2029.41" y="777.21" width="22.56" height="2.2" transform="translate(4184 1198.33) rotate(170.21)"/><rect className="cls-1" x="2045.13" y="229.74" width="22.56" height="2.2" transform="translate(4112.82 461.68) rotate(180)"/><rect className="cls-1" x="2029.44" y="234.51" width="22.56" height="2.2" transform="translate(3992.74 875.68) rotate(-168.43)"/><polyline className="cls-1" points="2052.5 497.78 2060.55 506.6 2030.52 506.6 2037 515.66"/><path className="cls-1" d="m952.52,2418c-52.03,2.11-105.2,3.46-158.06,4.02-53.67.57-93.19.19-124.94-.11l-10.04-.1c-85.6-.79-176.52-.6-270.26.57l-9.48.12-46.96-109.68-190.64-288.07L.71,1997.82l7-16.23c18.84-43.7,35.86-88.24,49.21-128.81,10.96-33.3,19.95-65.37,23.18-77.66.99-3.76,4.03-15.61,6.73-26.1.68-2.63,2.09-8.11,3.9-15.42,1.02-4.1,1.66-6.78,1.67-6.8,2.28-9.43,3.78-16.03,4.98-21.33.59-2.61,1.11-4.9,1.62-7.05,3.59-15.33,6.99-26.03,13.15-45.47,3.87-12.22,11.07-34.94,22.42-64.16,8.93-23,18.86-45.98,29.53-68.32l6.39-13.39,13.09,7c22.26,11.91,44.88,23.89,67.22,35.6,34.24,17.95,69.1,35.93,103.62,53.45,19.36,9.64,38.96,19.17,58.25,28.33,49.71,23.62,67.75,30.76,73.68,33.11,15.1,5.98,30.5,11.55,45.76,16.53l.21.07.21.08c24.59,8.91,49.9,15.8,75.23,20.49,19.09,3.53,47.71,7.51,75.68,6.38,1.24-.05,2.47-.11,3.71-.18,9.45-.54,18-1.67,26.14-3.46,9.9-2.17,19.65-5.31,28.96-9.35l.13-.06c6.95-2.93,13.69-6.52,20.01-10.65,2.99-1.95,9.09-6.2,16.37-12.72,4.9-4.39,14.64-13.86,24.72-27.9,8.64-12.03,15.89-25.17,21.56-39.06l4.31-10.56,60.13,10.41c44.94,7.32,90.77,13.92,136.22,19.63,55.83,7.02,104.04,13.08,166.45,16.6,46.5,2.63,93.91,3.44,140.89,2.42,54.74-2.87,110.2-6.56,164.83-10.94,45.67-3.67,91.95-7.92,137.53-12.64,99.82-10.73,199.51-20.35,296.25-28.58,128.15-10.91,240.56-18.62,353.77-24.28,29.58-1.48,59.52-2.83,88.99-4.02,11.68-.47,22.21-.88,31.45-1.22l14.26-.53.43,14.27c.6,19.85,1.26,39.85,1.98,59.45.28,7.69.4,10.66.74,19.25.33,8.33.87,21.92,1.98,50.14l.19,4.93c.64,16.35,1.06,27.1,1.72,42.92.47,11.31.78,18.26,1.05,24.35.15,3.35.28,6.44.43,9.84.83,19.24,1.15,29.74,1.69,47.14.35,11.19.79,25.32,1.51,46.58.54,15.85,1.21,35.57,2.21,61.96.23,5.98.44,11.17.69,17.61.39,9.79.9,22.44,1.76,44.99,1,26.07,1.25,33.42,1.36,36.95.08,2.49.11,3.26.29,7.41.13,2.97.26,5.75.37,8.4.59,13.06,1.05,23.38,1.21,38.19.1,9.12.08,19.28-.7,31.72-.9,14.24-2.23,22.58-3.15,27.61-1.15,6.29-2.6,12.54-4.2,18.07-1.9,6.56-4.19,13.08-6.83,19.35l-.18.42-.2.41c-7.51,15.06-17.32,28.51-29.17,39.98-10.87,10.52-20.61,16.53-31.88,23.49-20.64,12.75-38,19.78-56.38,27.23-12.99,5.26-22.67,8.67-33.97,12.58-20.37,7.05-41.08,13.5-61.56,19.19-55.09,15.29-99.84,22.75-139.32,29.33-18.01,3-36.21,5.77-54.07,8.24l-.13.02c-107.43,13.83-211.96,22.87-310.67,26.87-5.42.22-10.7.42-15.82.6-78.91,2.79-193.81,3.81-249.03,4.3h-1.19c-10.15.1-37.1.34-73.79.89-32.98.5-66.17,1.15-98.68,1.93-57.06,8.5-115.11,15.46-172.54,20.69-47.36,4.31-95.46,7.54-142.97,9.61l-.75.03Z"/><path className="cls-6" d="m176.87,1526.58c-11.94,25.01-21.51,47.77-29.1,67.34-10.96,28.24-17.92,50.05-22.12,63.3-6.15,19.39-9.39,29.63-12.86,44.43-1.53,6.52-3.2,14.35-6.62,28.48,0,0-.66,2.71-1.69,6.87-1.78,7.2-3.18,12.63-3.93,15.55-2.7,10.52-5.76,22.4-6.75,26.17-2.94,11.21-12.09,44.06-23.43,78.5-18.64,56.64-39.5,106.43-49.66,129.99,43.32,8.25,86.63,16.5,129.95,24.75,64.88,98.04,129.76,196.08,194.65,294.12,14.58,34.05,29.16,68.09,43.74,102.14,116.23-1.45,207.26-1.16,270.57-.57,33.11.31,75.32.84,134.7.21,66.78-.71,121.59-2.55,158.34-4.04,45.65-1.99,93.14-5.1,142.31-9.57,60.41-5.5,118.01-12.57,172.61-20.72,22.84-.55,57.42-1.31,99.69-1.95,38.37-.58,66.64-.82,75.07-.9,54.32-.48,169.99-1.51,248.65-4.29,76.13-2.69,185.9-9.42,325.18-27.36,12.43-1.71,31.07-4.41,53.68-8.18,41.02-6.84,84.58-14.22,137.86-29.01,14.7-4.08,35.66-10.25,60.72-18.92,10.19-3.53,20.09-6.98,33.28-12.33,18.72-7.58,35.03-14.28,54.26-26.15,11.17-6.9,19.71-12.17,29.47-21.61,13.49-13.05,21.6-26.6,26.34-36.11,1.98-4.72,4.24-10.71,6.28-17.79.58-1.99,2.31-8.16,3.88-16.69.86-4.68,2.09-12.43,2.94-25.95.73-11.66.78-21.17.67-30.68-.19-17.51-.8-28.4-1.57-46.13-.45-10.29.04-.22-1.66-44.44-1.43-37.38-1.88-47.52-2.45-62.6-1-26.28-1.67-45.81-2.21-62.02-1.85-54.46-1.85-62.14-3.2-93.59-.41-9.57-.75-16.66-1.48-34.2-.73-17.37-1.16-28.63-1.91-47.89-2.24-57.42-2.17-54.28-2.72-69.43-.52-14.2-1.23-34.62-1.98-59.54-28.89,1.07-70.38,2.74-120.25,5.23-91.67,4.58-204.12,11.55-353.27,24.24-68.88,5.86-170.47,15.06-296,28.56-45.02,4.66-90.98,8.91-137.85,12.67-56.34,4.52-111.51,8.15-165.44,10.98-56.5,1.23-104.74-.32-142.22-2.44-62.89-3.55-110.61-9.55-167.41-16.69-54.44-6.84-100.9-13.88-136.79-19.72-16.32-2.83-32.65-5.65-48.97-8.48-7.4,18.14-16.09,32.12-23.17,41.98-12.01,16.72-23.41,27.17-26.78,30.19-8.84,7.92-15.99,12.67-18.07,14.03-8.43,5.51-16.18,9.28-22.25,11.84-7.65,3.32-18.36,7.3-31.56,10.19-6.65,1.45-15.78,3.04-28.36,3.76-34.09,1.96-68.74-3.81-82.78-6.41-20.31-3.76-46.97-10.05-77.48-21.11-11.04-3.61-27.26-9.17-46.58-16.83-7.01-2.78-25.84-10.35-74.54-33.49-14.9-7.08-34.89-16.7-58.53-28.47-34.38-17.45-68.99-35.3-103.83-53.56-22.64-11.87-45.08-23.76-67.33-35.66Z"/><path className="cls-6" d="m978.44,1909.7c118.05-5.2,236.09-10.39,354.13-15.59l300.86,22.53-305.49,21.43c-116.5-9.45-233-18.91-349.5-28.36Z"/><path className="cls-1" d="m1780.37,1978.38c-1.24.05-2.25.03-2.92,0l-162.66-.17-6.3-355.78,198.81-20.24.16,15.53c1.07,104.21,3.4,306.05,4.59,324.11.87,13.29-3.83,21.51-7.92,26.07-7.73,8.59-18.2,10.25-23.76,10.48h0Z"/><path className="cls-6" d="m1628.72,1964.06l149.13.15s21.59,1.78,20.06-21.44c-1.53-23.22-4.62-324.9-4.62-324.9l-170.39,17.35,5.82,328.84Z"/><line className="cls-6" x1="222.46" y1="2120.54" x2="1269.63" y2="2373.43"/><g id="point"><rect className="cls-1" x="148.91" y="1592.49" width="22.56" height="2.2" transform="translate(587.58 50.05) rotate(21.22)"/><rect className="cls-1" x="42.2" y="1936.22" width="22.56" height="2.2" transform="translate(704.75 111.96) rotate(21.22)"/><rect className="cls-1" x="1322.78" y="1667.59" width="22.56" height="2.2" transform="translate(2947.45 268.25) rotate(87.68)"/><rect className="cls-1" x="874" y="1628.7" width="22.56" height="2.2" transform="translate(2631.1 1003.65) rotate(98.78)"/><rect className="cls-1" x="677.45" y="1732.29" width="22.56" height="2.2" transform="translate(2392.85 975.13) rotate(87.68)"/><rect className="cls-1" x="467.17" y="1687.76" width="22.56" height="2.2" transform="translate(2226.49 1848.64) rotate(111.04)"/></g><polyline className="cls-1" points="1861.41 2002.44 1887.72 2019.06 376.45 2001.97 401.86 2029.23"/><path className="cls-1" d="m2530.76,306.2l-21.25-110.8,218.57-42.42,143.39-27.78,18.38,97.88,89.58-17.21c13.41-2.57,27.01-5.12,40.43-7.58,19.76-3.63,39.82-7.21,59.63-10.63,12.04-2.01,24.13-4,36.03-5.93,31.03-5.05,62.54-10.02,93.64-14.77l114.75-15.49c20.39-2.49,41.09-4.9,61.51-7.16,22.04-2.45,44.43-4.8,66.54-7l.31-.03,141.33-10.88c17.32-1.01,34.91-1.93,52.28-2.71,13.32-.6,26.85-1.14,40.21-1.61h.24s65.46-.07,65.46-.07c32.65.47,65.75,1.17,98.38,2.08,20.91.59,42.02,1.28,62.75,2.04l116.22,6.08,67.84,5.08,62.82,5.39c24.88,2.53,50.06,5.36,74.84,8.41,23.78,2.93,47.86,6.15,71.57,9.56l125.45,19.71-162.44,70.53c-14.75,6.67-28.95,13.06-43.42,19.54l-6.37,2.85c-15.84,7.08-24.56,10.98-36.86,16.93-8.68,4.2-17.34,8.55-25.74,12.93l-27.44,15.48c-18.65,10.26-36.29,22.34-52.42,35.91-5.68,4.77-11.25,9.81-16.58,14.97-7.1,6.99-13.95,14.3-20.38,21.75-7.31,8.48-18.37,21.31-29.29,39.45-4.26,7.08-8.18,14.42-11.67,21.83l-7.79,21.76c-4.16,13.57-7.44,27.53-9.75,41.52-2.49,15.04-3.91,30.39-4.22,45.63-.17,8.34-.11,30.82,4.1,59.44,3.62,24.55,9.62,49.05,17.85,72.82l6.94,20.07-131.39-7.97c-32.81-2.04-66.07-3.87-98.88-5.45-29.9-1.44-60.21-2.71-90.08-3.77l-127.78-3.25c-41.11-1-82.83-1.56-124-1.67-20.13-.05-40.54,0-60.65.16l-58.88.74c-15.17.55-30.58,1.16-45.81,1.81-17.16.73-34.55,1.54-51.7,2.4l-92.02,6.03-102.44,7.69-90.22,8.45-166.66,17.04-164.94,17.72-69.98-447.51Z"/><path className="cls-6" d="m2878.54,239.67c-6.13-32.62-12.25-65.23-18.38-97.85l-129.39,25.07-204.69,39.72,18.63,97.15,67.93,434.4c50.53-5.43,101.05-10.86,151.58-16.29,55.57-5.68,111.14-11.36,166.71-17.04,30.14-2.82,60.28-5.65,90.42-8.47l102.63-7.71c30.73-2.02,61.47-4.03,92.2-6.05,17.19-.86,34.5-1.67,51.92-2.41,15.44-.66,30.8-1.26,46.07-1.82,19.7-.25,39.41-.5,59.11-.74,20.12-.16,40.38-.21,60.8-.16,42.07.11,83.51.68,124.32,1.67,42.61,1.08,85.23,2.17,127.84,3.25,29.8,1.06,59.92,2.32,90.35,3.78,33.42,1.61,66.44,3.44,99.06,5.46,36.73,2.23,73.46,4.46,110.2,6.69-10.27-29.67-15.57-55.65-18.47-75.39-4.78-32.42-4.36-56.61-4.25-61.8.29-13.97,1.5-30.04,4.41-47.65,2.71-16.41,6.4-31.04,10.28-43.67,2.71-7.57,5.41-15.13,8.12-22.7,2.69-5.77,6.84-14.1,12.64-23.73,11.31-18.79,22.46-31.84,30.7-41.4,5.08-5.89,12.18-13.76,21.21-22.64,5.36-5.19,11.14-10.44,17.36-15.67,18.88-15.88,37.61-28.08,54.72-37.48,9.17-5.17,18.34-10.34,27.51-15.52,5.89-3.07,15.02-7.76,26.33-13.23,14.05-6.8,23.4-10.91,43.61-19.96,9.75-4.36,24.71-11.08,43.46-19.56,39.27-17.05,78.53-34.1,117.8-51.15-25.69-4.04-51.38-8.07-77.08-12.11-23.31-3.36-47.08-6.54-71.29-9.52-25.27-3.11-50.12-5.9-74.54-8.38-20.87-1.79-41.74-3.58-62.6-5.37-22.51-1.69-45.02-3.37-67.52-5.06-38.61-2.02-77.23-4.04-115.84-6.07-20.73-.77-41.6-1.45-62.62-2.04-33.07-.93-65.8-1.62-98.18-2.08-21.67.02-43.34.04-65,.07-13.25.46-26.6,1-40.07,1.6-17.56.79-34.92,1.69-52.1,2.7-47.02,3.62-94.05,7.24-141.07,10.87-21.92,2.18-44.05,4.5-66.38,6.98-20.65,2.29-41.1,4.68-61.36,7.15-38.11,5.14-76.21,10.29-114.32,15.43-30.99,4.73-62.16,9.64-93.5,14.75-12,1.95-23.96,3.92-35.89,5.91-19.68,3.4-39.51,6.93-59.48,10.6-13.53,2.49-26.97,5.01-40.32,7.56-34.52,6.63-69.04,13.26-103.56,19.89Z"/><rect className="cls-1" x="3834.2" y="677.44" width="22.56" height="2.2" transform="translate(4653.04 -3141.94) rotate(91.93)"/><rect className="cls-1" x="3956" y="464.57" width="22.56" height="2.2" transform="translate(324.35 -1172.99) rotate(17.52)"/><rect className="cls-1" x="4084.37" y="161.57" width="22.56" height="2.2" transform="translate(4544.52 -3911.55) rotate(94.01)"/><rect className="cls-1" x="2544.73" y="300.39" width="22.56" height="2.2" transform="translate(5125.48 153.57) rotate(169.98)"/><rect className="cls-1" x="3009.24" y="684.05" width="22.56" height="2.2" transform="translate(2571.74 3749.72) rotate(-94.45)"/><rect className="cls-1" x="3073.01" y="211.58" width="22.56" height="2.2" transform="translate(3351.24 3292.74) rotate(-98.9)"/><polyline className="cls-1" points="3898.06 460.52 3935.18 492.27 2602.28 481.95 2631.46 506.91"/></svg>